<?xml version="1.0" encoding="UTF-8" standalone="no"?>
<!-- Created with Inkscape (http://www.inkscape.org/) -->

<svg
   xmlns:dc="http://purl.org/dc/elements/1.1/"
   xmlns:cc="http://creativecommons.org/ns#"
   xmlns:rdf="http://www.w3.org/1999/02/22-rdf-syntax-ns#"
   xmlns:svg="http://www.w3.org/2000/svg"
   xmlns="http://www.w3.org/2000/svg"
   xmlns:xlink="http://www.w3.org/1999/xlink"
   xmlns:sodipodi="http://sodipodi.sourceforge.net/DTD/sodipodi-0.dtd"
   xmlns:inkscape="http://www.inkscape.org/namespaces/inkscape"
   id="svg3336"
   version="1.1"
   inkscape:version="0.91 r13725"
   xml:space="preserve"
   width="744.09448"
   height="1052.3623"
   viewBox="0 0 744.09448 1052.3623"
   sodipodi:docname="pilot.svg"
   inkscape:export-filename="C:\sturdy-spork\Assets\pzf\images\pilot.png"
   inkscape:export-xdpi="300"
   inkscape:export-ydpi="300"><metadata
     id="metadata3342"><rdf:RDF><cc:Work
         rdf:about=""><dc:format>image/svg+xml</dc:format><dc:type
           rdf:resource="http://purl.org/dc/dcmitype/StillImage" /><dc:title /></cc:Work></rdf:RDF></metadata><defs
     id="defs3340"><radialGradient
       fx="0"
       fy="0"
       cx="0"
       cy="0"
       r="0.75"
       gradientUnits="userSpaceOnUse"
       gradientTransform="matrix(276.26457,0,0,276.26457,243.8844,382.2678)"
       spreadMethod="pad"
       id="radialGradient3356"><stop
         id="stop3360"
         offset="0"
         style="stop-opacity:1;stop-color:#4fff4d" /><stop
         style="stop-color:#80dccc;stop-opacity:1"
         offset="0.31778312"
         id="stop5856" /><stop
         id="stop3358"
         offset="1"
         style="stop-opacity:1;stop-color:#e580ff" /></radialGradient><linearGradient
       inkscape:collect="always"
       xlink:href="#radialGradient3356"
       id="linearGradient4239"
       x1="300.47455"
       y1="813.48761"
       x2="302.96429"
       y2="416.1543"
       gradientUnits="userSpaceOnUse" /></defs><sodipodi:namedview
     pagecolor="#ffffff"
     bordercolor="#666666"
     borderopacity="1"
     objecttolerance="10"
     gridtolerance="10"
     guidetolerance="10"
     inkscape:pageopacity="0"
     inkscape:pageshadow="2"
     inkscape:window-width="1366"
     inkscape:window-height="706"
     id="namedview3338"
     showgrid="false"
     inkscape:zoom="0.6"
     inkscape:cx="372.04724"
     inkscape:cy="593.3909"
     inkscape:window-x="-8"
     inkscape:window-y="-8"
     inkscape:window-maximized="1"
     inkscape:current-layer="layer1"
     showguides="false" /><g
     inkscape:groupmode="layer"
     id="layer1"
     inkscape:label="pilot_2"><g
       id="g4395"
       transform="matrix(-3.3992391,0,0,-3.0224722,573.87979,775.32252)"><path
         id="path4379"
         d="M 0,-1.3234199 0,30 60,30 60.147092,-1.4888474 Z"
         inkscape:connector-curvature="0"
         style="fill:#00247d"
         sodipodi:nodetypes="ccccc" /><path
         id="path4381"
         d="M 0,0 60,30 M 60,0 0,30"
         inkscape:connector-curvature="0"
         style="stroke:#ffffff;stroke-width:6" /><path
         id="path4383"
         clip-path="url(#t)"
         d="M 0,0 60,30 M 60,0 0,30"
         inkscape:connector-curvature="0"
         style="stroke:#cf142b;stroke-width:4" /><path
         id="path4385"
         d="M 30.147092,-0.99256496 30,30 M 0,15 60,15"
         inkscape:connector-curvature="0"
         style="stroke:#ffffff;stroke-width:10"
         sodipodi:nodetypes="cccc" /><path
         id="path4387"
         d="M 30,-1.1579925 30,30 M 0,15 60,15"
         inkscape:connector-curvature="0"
         style="stroke:#cf142b;stroke-width:6"
         sodipodi:nodetypes="cccc" /></g><g
       id="g4370"
       transform="matrix(12.71875,0,0,10,170,679.3623)"
       style="stroke-width:0.65560085;stroke-miterlimit:22.92558479;stroke-dasharray:none"><rect
         id="rect4360"
         height="10"
         width="16"
         x="0"
         y="0"
         style="fill:#ffffff;stroke-width:0.65560085;stroke-miterlimit:22.92558479;stroke-dasharray:none" /><rect
         id="rect4362"
         y="5"
         height="5"
         width="16"
         x="0"
         style="fill:#dc143c;stroke-width:0.65560085;stroke-miterlimit:22.92558479;stroke-dasharray:none" /></g></g><g
     id="g3344"
     inkscape:groupmode="layer"
     inkscape:label="pilot_1"
     transform="matrix(1.25,0,0,-1.25,0,1052.3623)"
     sodipodi:insensitive="true"><path
       id="path3364"
       style="opacity:1;fill:url(#linearGradient4239);fill-opacity:1;fill-rule:evenodd;stroke:#000000;stroke-width:0.86400002;stroke-linecap:butt;stroke-linejoin:miter;stroke-miterlimit:22.92558479;stroke-dasharray:none;stroke-opacity:1"
       d="m 136,816 328,0 0,-596 c -172.73238,143.97867 -328,0 -328,0 z"
       inkscape:connector-curvature="0"
       sodipodi:nodetypes="ccccc" /><path
       d="m 245.82495,416.5173 28.1468,0 c 5.606,0 10.1912,-9.7396 10.1912,-21.6476 l 0,0 c 0,-11.9064 -4.5852,-21.6464 -10.1912,-21.6464 l -28.1468,0 c -5.606,0 -10.1912,9.74 -10.1912,21.6464 l 0,0 c 0,11.908 4.5852,21.6476 10.1912,21.6476 z"
       style="fill:#393536;fill-opacity:1;fill-rule:evenodd;stroke:#393536;stroke-width:0.86400002;stroke-linecap:butt;stroke-linejoin:miter;stroke-miterlimit:22.92558479;stroke-dasharray:none;stroke-opacity:1"
       id="path3368"
       inkscape:connector-curvature="0" /><path
       d="m 399.77095,416.5173 28.1472,0 c 5.6056,0 10.1912,-9.7396 10.1912,-21.6476 l 0,0 c 0,-11.9064 -4.5856,-21.6464 -10.1912,-21.6464 l -28.1472,0 c -5.6056,0 -10.1908,9.74 -10.1908,21.6464 l 0,0 c 0,11.908 4.5852,21.6476 10.1908,21.6476 z"
       style="fill:#393536;fill-opacity:1;fill-rule:evenodd;stroke:#393536;stroke-width:0.86400002;stroke-linecap:butt;stroke-linejoin:miter;stroke-miterlimit:22.92558479;stroke-dasharray:none;stroke-opacity:1"
       id="path3370"
       inkscape:connector-curvature="0" /><path
       d="m 322.79815,416.5173 28.1468,0 c 5.6056,0 10.1912,-9.7396 10.1912,-21.6476 l 0,0 c 0,-11.9064 -4.5856,-21.6464 -10.1912,-21.6464 l -28.1468,0 c -5.606,0 -10.1912,9.74 -10.1912,21.6464 l 0,0 c 0,11.908 4.5852,21.6476 10.1912,21.6476 z"
       style="fill:#393536;fill-opacity:1;fill-rule:evenodd;stroke:#393536;stroke-width:0.86400002;stroke-linecap:butt;stroke-linejoin:miter;stroke-miterlimit:22.92558479;stroke-dasharray:none;stroke-opacity:1"
       id="path3372"
       inkscape:connector-curvature="0" /><path
       d="m 169.42095,416.5173 28.1468,0 c 5.606,0 10.1912,-9.7396 10.1912,-21.6476 l 0,0 c 0,-11.9064 -4.5852,-21.6464 -10.1912,-21.6464 l -28.1468,0 c -5.6056,0 -10.1912,9.74 -10.1912,21.6464 l 0,0 c 0,11.908 4.5856,21.6476 10.1912,21.6476 z"
       style="fill:#393536;fill-opacity:1;fill-rule:evenodd;stroke:#393536;stroke-width:0.86400002;stroke-linecap:butt;stroke-linejoin:miter;stroke-miterlimit:22.92558479;stroke-dasharray:none;stroke-opacity:1"
       id="path3374"
       inkscape:connector-curvature="0" /><path
       d="m 245.82495,358.9173 28.1468,0 c 5.606,0 10.1912,-9.7396 10.1912,-21.6476 l 0,0 c 0,-11.9064 -4.5852,-21.6464 -10.1912,-21.6464 l -28.1468,0 c -5.606,0 -10.1912,9.74 -10.1912,21.6464 l 0,0 c 0,11.908 4.5852,21.6476 10.1912,21.6476 z"
       style="fill:#393536;fill-opacity:1;fill-rule:evenodd;stroke:#393536;stroke-width:0.86400002;stroke-linecap:butt;stroke-linejoin:miter;stroke-miterlimit:22.92558479;stroke-dasharray:none;stroke-opacity:1"
       id="path3376"
       inkscape:connector-curvature="0" /><path
       d="m 399.77095,358.9173 28.1472,0 c 5.6056,0 10.1912,-9.7396 10.1912,-21.6476 l 0,0 c 0,-11.9064 -4.5856,-21.6464 -10.1912,-21.6464 l -28.1472,0 c -5.6056,0 -10.1908,9.74 -10.1908,21.6464 l 0,0 c 0,11.908 4.5852,21.6476 10.1908,21.6476 z"
       style="fill:#393536;fill-opacity:1;fill-rule:evenodd;stroke:#393536;stroke-width:0.86400002;stroke-linecap:butt;stroke-linejoin:miter;stroke-miterlimit:22.92558479;stroke-dasharray:none;stroke-opacity:1"
       id="path3378"
       inkscape:connector-curvature="0" /><path
       d="m 322.79815,358.9173 28.1468,0 c 5.6056,0 10.1912,-9.7396 10.1912,-21.6476 l 0,0 c 0,-11.9064 -4.5856,-21.6464 -10.1912,-21.6464 l -28.1468,0 c -5.606,0 -10.1912,9.74 -10.1912,21.6464 l 0,0 c 0,11.908 4.5852,21.6476 10.1912,21.6476 z"
       style="fill:#393536;fill-opacity:1;fill-rule:evenodd;stroke:#393536;stroke-width:0.86400002;stroke-linecap:butt;stroke-linejoin:miter;stroke-miterlimit:22.92558479;stroke-dasharray:none;stroke-opacity:1"
       id="path3380"
       inkscape:connector-curvature="0" /><path
       d="m 169.42095,358.9173 28.1468,0 c 5.606,0 10.1912,-9.7396 10.1912,-21.6476 l 0,0 c 0,-11.9064 -4.5852,-21.6464 -10.1912,-21.6464 l -28.1468,0 c -5.6056,0 -10.1912,9.74 -10.1912,21.6464 l 0,0 c 0,11.908 4.5856,21.6476 10.1912,21.6476 z"
       style="fill:#393536;fill-opacity:1;fill-rule:evenodd;stroke:#393536;stroke-width:0.86400002;stroke-linecap:butt;stroke-linejoin:miter;stroke-miterlimit:22.92558479;stroke-dasharray:none;stroke-opacity:1"
       id="path3382"
       inkscape:connector-curvature="0" /><path
       d="m 247.28095,419.4293 28.1468,0 c 5.6056,0 10.1912,-9.74 10.1912,-21.6476 l 0,0 c 0,-11.9068 -4.5856,-21.6468 -10.1912,-21.6468 l -28.1468,0 c -5.606,0 -10.1912,9.74 -10.1912,21.6468 l 0,0 c 0,11.9076 4.5852,21.6476 10.1912,21.6476 z"
       style="fill:#00a650;fill-opacity:1;fill-rule:evenodd;stroke:#00a650;stroke-width:0.86400002;stroke-linecap:butt;stroke-linejoin:miter;stroke-miterlimit:22.92558479;stroke-dasharray:none;stroke-opacity:1"
       id="path3386"
       inkscape:connector-curvature="0" /><path
       d="m 401.22695,419.4293 28.1468,0 c 5.606,0 10.1912,-9.74 10.1912,-21.6476 l 0,0 c 0,-11.9068 -4.5852,-21.6468 -10.1912,-21.6468 l -28.1468,0 c -5.6056,0 -10.1912,9.74 -10.1912,21.6468 l 0,0 c 0,11.9076 4.5856,21.6476 10.1912,21.6476 z"
       style="fill:#ed1c24;fill-opacity:1;fill-rule:evenodd;stroke:#ed1c24;stroke-width:0.86400002;stroke-linecap:butt;stroke-linejoin:miter;stroke-miterlimit:22.92558479;stroke-dasharray:none;stroke-opacity:1"
       id="path3388"
       inkscape:connector-curvature="0" /><path
       d="m 324.25375,419.4293 28.1472,0 c 5.6056,0 10.1908,-9.74 10.1908,-21.6476 l 0,0 c 0,-11.9068 -4.5852,-21.6468 -10.1908,-21.6468 l -28.1472,0 c -5.6056,0 -10.1908,9.74 -10.1908,21.6468 l 0,0 c 0,11.9076 4.5852,21.6476 10.1908,21.6476 z"
       style="fill:#fff200;fill-opacity:1;fill-rule:evenodd;stroke:#fff200;stroke-width:0.86400002;stroke-linecap:butt;stroke-linejoin:miter;stroke-miterlimit:22.92558479;stroke-dasharray:none;stroke-opacity:1"
       id="path3390"
       inkscape:connector-curvature="0" /><path
       d="m 170.87695,419.4293 28.1468,0 c 5.606,0 10.1912,-9.74 10.1912,-21.6476 l 0,0 c 0,-11.9068 -4.5852,-21.6468 -10.1912,-21.6468 l -28.1468,0 c -5.606,0 -10.1912,9.74 -10.1912,21.6468 l 0,0 c 0,11.9076 4.5852,21.6476 10.1912,21.6476 z"
       style="fill:#a52e84;fill-opacity:1;fill-rule:evenodd;stroke:#a52e84;stroke-width:0.86400002;stroke-linecap:butt;stroke-linejoin:miter;stroke-miterlimit:22.92558479;stroke-dasharray:none;stroke-opacity:1"
       id="path3392"
       inkscape:connector-curvature="0" /><path
       d="m 247.28095,361.8293 28.1468,0 c 5.6056,0 10.1912,-9.74 10.1912,-21.6476 l 0,0 c 0,-11.9068 -4.5856,-21.6468 -10.1912,-21.6468 l -28.1468,0 c -5.606,0 -10.1912,9.74 -10.1912,21.6468 l 0,0 c 0,11.9076 4.5852,21.6476 10.1912,21.6476 z"
       style="fill:#f47216;fill-opacity:1;fill-rule:evenodd;stroke:#f47216;stroke-width:0.86400002;stroke-linecap:butt;stroke-linejoin:miter;stroke-miterlimit:22.92558479;stroke-dasharray:none;stroke-opacity:1"
       id="path3394"
       inkscape:connector-curvature="0" /><path
       d="m 401.22695,361.8293 28.1468,0 c 5.606,0 10.1912,-9.74 10.1912,-21.6476 l 0,0 c 0,-11.9068 -4.5852,-21.6468 -10.1912,-21.6468 l -28.1468,0 c -5.6056,0 -10.1912,9.74 -10.1912,21.6468 l 0,0 c 0,11.9076 4.5856,21.6476 10.1912,21.6476"
       style="fill:#ffffff;fill-opacity:1;fill-rule:evenodd;stroke:none"
       id="path3396"
       inkscape:connector-curvature="0" /><path
       d="m 324.25375,361.8293 28.1472,0 c 5.6056,0 10.1908,-9.74 10.1908,-21.6476 l 0,0 c 0,-11.9068 -4.5852,-21.6468 -10.1908,-21.6468 l -28.1472,0 c -5.6056,0 -10.1908,9.74 -10.1908,21.6468 l 0,0 c 0,11.9076 4.5852,21.6476 10.1908,21.6476 z"
       style="fill:#666666;fill-opacity:1;fill-rule:evenodd;stroke:#231f20;stroke-width:0.86400002;stroke-linecap:butt;stroke-linejoin:miter;stroke-miterlimit:22.92558479;stroke-dasharray:none;stroke-opacity:1"
       id="path3398"
       inkscape:connector-curvature="0" /><path
       d="m 170.87695,361.8293 28.1468,0 c 5.606,0 10.1912,-9.74 10.1912,-21.6476 l 0,0 c 0,-11.9068 -4.5852,-21.6468 -10.1912,-21.6468 l -28.1468,0 c -5.606,0 -10.1912,9.74 -10.1912,21.6468 l 0,0 c 0,11.9076 4.5852,21.6476 10.1912,21.6476 z"
       style="fill:#00adef;fill-opacity:1;fill-rule:evenodd;stroke:#00adef;stroke-width:0.86400002;stroke-linecap:butt;stroke-linejoin:miter;stroke-miterlimit:22.92558479;stroke-dasharray:none;stroke-opacity:1"
       id="path3400"
       inkscape:connector-curvature="0" /><path
       d="m 192.75015,733.6177 c -16.6336,0 -30.1232,-13.4896 -30.1232,-30.1232 0,-16.6348 13.4896,-30.1232 30.1232,-30.1232 16.6348,0 30.1232,13.4884 30.1232,30.1232 0,16.6336 -13.4884,30.1232 -30.1232,30.1232 z"
       style="fill:#4f4c4d;fill-opacity:1;fill-rule:evenodd;stroke:#4f4c4d;stroke-width:0.86400002;stroke-linecap:butt;stroke-linejoin:miter;stroke-miterlimit:22.92558479;stroke-dasharray:none;stroke-opacity:1"
       id="path3402"
       inkscape:connector-curvature="0" /><path
       d="m 295.88695,733.6177 c -16.6348,0 -30.1232,-13.4896 -30.1232,-30.1232 0,-16.6348 13.4884,-30.1232 30.1232,-30.1232 16.6348,0 30.1232,13.4884 30.1232,30.1232 0,16.6336 -13.4884,30.1232 -30.1232,30.1232 z"
       style="fill:#4f4c4d;fill-opacity:1;fill-rule:evenodd;stroke:#4f4c4d;stroke-width:0.86400002;stroke-linecap:butt;stroke-linejoin:miter;stroke-miterlimit:22.92558479;stroke-dasharray:none;stroke-opacity:1"
       id="path3404"
       inkscape:connector-curvature="0" /><path
       d="m 399.02375,733.6177 c -16.6348,0 -30.1232,-13.4896 -30.1232,-30.1232 0,-16.6348 13.4884,-30.1232 30.1232,-30.1232 16.634,0 30.1232,13.4884 30.1232,30.1232 0,16.6336 -13.4892,30.1232 -30.1232,30.1232 z"
       style="fill:#4f4c4d;fill-opacity:1;fill-rule:evenodd;stroke:#4f4c4d;stroke-width:0.86400002;stroke-linecap:butt;stroke-linejoin:miter;stroke-miterlimit:22.92558479;stroke-dasharray:none;stroke-opacity:1"
       id="path3406"
       inkscape:connector-curvature="0" /><path
       d="m 192.75015,659.2809 c -16.6336,0 -30.1232,-13.4884 -30.1232,-30.1232 0,-16.6348 13.4896,-30.1232 30.1232,-30.1232 16.6348,0 30.1232,13.4884 30.1232,30.1232 0,16.6348 -13.4884,30.1232 -30.1232,30.1232 z"
       style="fill:#4f4c4d;fill-opacity:1;fill-rule:evenodd;stroke:#4f4c4d;stroke-width:0.86400002;stroke-linecap:butt;stroke-linejoin:miter;stroke-miterlimit:22.92558479;stroke-dasharray:none;stroke-opacity:1"
       id="path3408"
       inkscape:connector-curvature="0" /><path
       d="m 295.88695,659.2809 c -16.6348,0 -30.1232,-13.4884 -30.1232,-30.1232 0,-16.6348 13.4884,-30.1232 30.1232,-30.1232 16.6348,0 30.1232,13.4884 30.1232,30.1232 0,16.6348 -13.4884,30.1232 -30.1232,30.1232 z"
       style="fill:#4f4c4d;fill-opacity:1;fill-rule:evenodd;stroke:#4f4c4d;stroke-width:0.86400002;stroke-linecap:butt;stroke-linejoin:miter;stroke-miterlimit:22.92558479;stroke-dasharray:none;stroke-opacity:1"
       id="path3410"
       inkscape:connector-curvature="0" /><path
       d="m 399.02375,659.2809 c -16.6348,0 -30.1232,-13.4884 -30.1232,-30.1232 0,-16.6348 13.4884,-30.1232 30.1232,-30.1232 16.634,0 30.1232,13.4884 30.1232,30.1232 0,16.6348 -13.4892,30.1232 -30.1232,30.1232 z"
       style="fill:#4f4c4d;fill-opacity:1;fill-rule:evenodd;stroke:#4f4c4d;stroke-width:0.86400002;stroke-linecap:butt;stroke-linejoin:miter;stroke-miterlimit:22.92558479;stroke-dasharray:none;stroke-opacity:1"
       id="path3412"
       inkscape:connector-curvature="0" /><path
       d="m 192.75015,584.9441 c -16.6336,0 -30.1232,-13.4884 -30.1232,-30.1232 0,-16.6336 13.4896,-30.1232 30.1232,-30.1232 16.6348,0 30.1232,13.4896 30.1232,30.1232 0,16.6348 -13.4884,30.1232 -30.1232,30.1232 z"
       style="fill:#4f4c4d;fill-opacity:1;fill-rule:evenodd;stroke:#4f4c4d;stroke-width:0.86400002;stroke-linecap:butt;stroke-linejoin:miter;stroke-miterlimit:22.92558479;stroke-dasharray:none;stroke-opacity:1"
       id="path3414"
       inkscape:connector-curvature="0" /><path
       d="m 295.88695,584.9441 c -16.6348,0 -30.1232,-13.4884 -30.1232,-30.1232 0,-16.6336 13.4884,-30.1232 30.1232,-30.1232 16.6348,0 30.1232,13.4896 30.1232,30.1232 0,16.6348 -13.4884,30.1232 -30.1232,30.1232 z"
       style="fill:#4f4c4d;fill-opacity:1;fill-rule:evenodd;stroke:#4f4c4d;stroke-width:0.86400002;stroke-linecap:butt;stroke-linejoin:miter;stroke-miterlimit:22.92558479;stroke-dasharray:none;stroke-opacity:1"
       id="path3416"
       inkscape:connector-curvature="0" /><path
       d="m 399.02375,584.9441 c -16.6348,0 -30.1232,-13.4884 -30.1232,-30.1232 0,-16.6336 13.4884,-30.1232 30.1232,-30.1232 16.634,0 30.1232,13.4896 30.1232,30.1232 0,16.6348 -13.4892,30.1232 -30.1232,30.1232 z"
       style="fill:#4f4c4d;fill-opacity:1;fill-rule:evenodd;stroke:#4f4c4d;stroke-width:0.86400002;stroke-linecap:butt;stroke-linejoin:miter;stroke-miterlimit:22.92558479;stroke-dasharray:none;stroke-opacity:1"
       id="path3418"
       inkscape:connector-curvature="0" /><path
       d="m 195.08135,736.4685 c -16.6336,0 -30.1232,-13.4896 -30.1232,-30.1232 0,-16.6352 13.4896,-30.1232 30.1232,-30.1232 16.6348,0 30.1232,13.488 30.1232,30.1232 0,16.6336 -13.4884,30.1232 -30.1232,30.1232 z"
       style="fill:#ffffff;fill-opacity:1;fill-rule:evenodd;stroke:#4f4c4d;stroke-width:0.86400002;stroke-linecap:butt;stroke-linejoin:miter;stroke-miterlimit:22.92558479;stroke-dasharray:none;stroke-opacity:1"
       id="path3420"
       inkscape:connector-curvature="0" /><path
       d="m 298.21815,736.4685 c -16.6348,0 -30.1232,-13.4896 -30.1232,-30.1232 0,-16.6352 13.4884,-30.1232 30.1232,-30.1232 16.6348,0 30.1232,13.488 30.1232,30.1232 0,16.6336 -13.4884,30.1232 -30.1232,30.1232 z"
       style="fill:#ffffff;fill-opacity:1;fill-rule:evenodd;stroke:#4f4c4d;stroke-width:0.86400002;stroke-linecap:butt;stroke-linejoin:miter;stroke-miterlimit:22.92558479;stroke-dasharray:none;stroke-opacity:1"
       id="path3422"
       inkscape:connector-curvature="0" /><path
       d="m 401.35495,736.4685 c -16.6348,0 -30.1232,-13.4896 -30.1232,-30.1232 0,-16.6352 13.4884,-30.1232 30.1232,-30.1232 16.634,0 30.1232,13.488 30.1232,30.1232 0,16.6336 -13.4892,30.1232 -30.1232,30.1232 z"
       style="fill:#ffffff;fill-opacity:1;fill-rule:evenodd;stroke:#4f4c4d;stroke-width:0.86400002;stroke-linecap:butt;stroke-linejoin:miter;stroke-miterlimit:22.92558479;stroke-dasharray:none;stroke-opacity:1"
       id="path3424"
       inkscape:connector-curvature="0" /><path
       d="m 195.08135,662.1313 c -16.6336,0 -30.1232,-13.4884 -30.1232,-30.1232 0,-16.6348 13.4896,-30.1232 30.1232,-30.1232 16.6348,0 30.1232,13.4884 30.1232,30.1232 0,16.6348 -13.4884,30.1232 -30.1232,30.1232 z"
       style="fill:#ffffff;fill-opacity:1;fill-rule:evenodd;stroke:#4f4c4d;stroke-width:0.86400002;stroke-linecap:butt;stroke-linejoin:miter;stroke-miterlimit:22.92558479;stroke-dasharray:none;stroke-opacity:1"
       id="path3426"
       inkscape:connector-curvature="0" /><path
       d="m 298.21815,662.1313 c -16.6348,0 -30.1232,-13.4884 -30.1232,-30.1232 0,-16.6348 13.4884,-30.1232 30.1232,-30.1232 16.6348,0 30.1232,13.4884 30.1232,30.1232 0,16.6348 -13.4884,30.1232 -30.1232,30.1232 z"
       style="fill:#ffffff;fill-opacity:1;fill-rule:evenodd;stroke:#4f4c4d;stroke-width:0.86400002;stroke-linecap:butt;stroke-linejoin:miter;stroke-miterlimit:22.92558479;stroke-dasharray:none;stroke-opacity:1"
       id="path3428"
       inkscape:connector-curvature="0" /><path
       d="m 401.35495,662.1313 c -16.6348,0 -30.1232,-13.4884 -30.1232,-30.1232 0,-16.6348 13.4884,-30.1232 30.1232,-30.1232 16.634,0 30.1232,13.4884 30.1232,30.1232 0,16.6348 -13.4892,30.1232 -30.1232,30.1232 z"
       style="fill:#ffffff;fill-opacity:1;fill-rule:evenodd;stroke:#4f4c4d;stroke-width:0.86400002;stroke-linecap:butt;stroke-linejoin:miter;stroke-miterlimit:22.92558479;stroke-dasharray:none;stroke-opacity:1"
       id="path3430"
       inkscape:connector-curvature="0" /><path
       d="m 195.08135,587.7945 c -16.6336,0 -30.1232,-13.4884 -30.1232,-30.1232 0,-16.6336 13.4896,-30.1232 30.1232,-30.1232 16.6348,0 30.1232,13.4896 30.1232,30.1232 0,16.6348 -13.4884,30.1232 -30.1232,30.1232 z"
       style="fill:#ffffff;fill-opacity:1;fill-rule:evenodd;stroke:#4f4c4d;stroke-width:0.86400002;stroke-linecap:butt;stroke-linejoin:miter;stroke-miterlimit:22.92558479;stroke-dasharray:none;stroke-opacity:1"
       id="path3432"
       inkscape:connector-curvature="0" /><path
       d="m 298.21815,587.7945 c -16.6348,0 -30.1232,-13.4884 -30.1232,-30.1232 0,-16.6336 13.4884,-30.1232 30.1232,-30.1232 16.6348,0 30.1232,13.4896 30.1232,30.1232 0,16.6348 -13.4884,30.1232 -30.1232,30.1232 z"
       style="fill:#ffffff;fill-opacity:1;fill-rule:evenodd;stroke:#4f4c4d;stroke-width:0.86400002;stroke-linecap:butt;stroke-linejoin:miter;stroke-miterlimit:22.92558479;stroke-dasharray:none;stroke-opacity:1"
       id="path3434"
       inkscape:connector-curvature="0" /><path
       d="m 401.35495,587.7945 c -16.6348,0 -30.1232,-13.4884 -30.1232,-30.1232 0,-16.6336 13.4884,-30.1232 30.1232,-30.1232 16.634,0 30.1232,13.4896 30.1232,30.1232 0,16.6348 -13.4892,30.1232 -30.1232,30.1232 z"
       style="fill:#ffffff;fill-opacity:1;fill-rule:evenodd;stroke:#4f4c4d;stroke-width:0.86400002;stroke-linecap:butt;stroke-linejoin:miter;stroke-miterlimit:22.92558479;stroke-dasharray:none;stroke-opacity:1"
       id="path3436"
       inkscape:connector-curvature="0" /><path
       d="m 205.56615,693.0653 -17.5012,0 0,4.6272 5.5868,0 0,13.9964 -5.5868,0 0,4.3236 c 0.82,0 1.634,0.0556 2.4356,0.1588 0.8072,0.1088 1.4572,0.2788 1.9424,0.5156 0.5644,0.286 1.008,0.668 1.3244,1.1476 0.3152,0.4864 0.4976,1.0804 0.5396,1.7916 l 5.7996,0 0,-21.9336 5.4596,0 0,-4.6272 z"
       style="fill:#4f4c4d;fill-opacity:1;fill-rule:nonzero;stroke:none"
       id="path3438"
       inkscape:connector-curvature="0" /><path
       d="m 205.56615,693.0653 -17.5012,0 0,4.6272 5.5868,0 0,13.9964 -5.5868,0 0,4.3236 c 0.82,0 1.634,0.0556 2.4356,0.1588 0.8072,0.1088 1.4572,0.2788 1.9424,0.5156 0.5644,0.286 1.008,0.668 1.3244,1.1476 0.3152,0.4864 0.4976,1.0804 0.5396,1.7916 l 5.7996,0 0,-21.9336 5.4596,0 0,-4.6272 z"
       style="fill:none;stroke:#4f4c4d;stroke-width:0.86400002;stroke-linecap:butt;stroke-linejoin:miter;stroke-miterlimit:22.92558479;stroke-dasharray:none;stroke-opacity:1"
       id="path3440"
       inkscape:connector-curvature="0" /><path
       d="m 309.29135,692.8433 -19.4624,0 0,4.3232 c 1.652,1.3064 3.1272,2.5388 4.4388,3.6988 1.312,1.16 2.4652,2.264 3.462,3.3084 1.2924,1.3664 2.2336,2.5624 2.8108,3.5956 0.5828,1.0316 0.874,2.0884 0.874,3.1816 0,1.2324 -0.3696,2.1804 -1.1044,2.8356 -0.7348,0.6624 -1.7608,0.99 -3.0796,0.99 -0.6732,0 -1.3108,-0.0852 -1.9116,-0.2496 -0.602,-0.1632 -1.2088,-0.382 -1.8288,-0.6428 -0.6012,-0.2732 -1.1168,-0.5532 -1.548,-0.8324 -0.4248,-0.2856 -0.7472,-0.5032 -0.9592,-0.644 l -0.5168,0 0,5.7816 c 0.7472,0.3584 1.9196,0.7224 3.5048,1.0988 1.5908,0.3708 3.1204,0.5588 4.5896,0.5588 3.1456,0 5.5264,-0.6984 7.148,-2.1008 1.6212,-1.3968 2.4288,-3.364 2.4288,-5.9028 0,-1.566 -0.3708,-3.1024 -1.1056,-4.6024 -0.7348,-1.5 -1.9548,-3.1092 -3.6612,-4.828 -1.0692,-1.0568 -2.1068,-1.998 -3.1148,-2.8176 -1.008,-0.8256 -1.7372,-1.4084 -2.186,-1.754 l 11.2216,0 0,-4.998 z"
       style="fill:#4f4c4d;fill-opacity:1;fill-rule:nonzero;stroke:none"
       id="path3442"
       inkscape:connector-curvature="0" /><path
       d="m 309.29135,692.8433 -19.4624,0 0,4.3232 c 1.652,1.3064 3.1272,2.5388 4.4388,3.6988 1.312,1.16 2.4652,2.264 3.462,3.3084 1.2924,1.3664 2.2336,2.5624 2.8108,3.5956 0.5828,1.0316 0.874,2.0884 0.874,3.1816 0,1.2324 -0.3696,2.1804 -1.1044,2.8356 -0.7348,0.6624 -1.7608,0.99 -3.0796,0.99 -0.6732,0 -1.3108,-0.0852 -1.9116,-0.2496 -0.602,-0.1632 -1.2088,-0.382 -1.8288,-0.6428 -0.6012,-0.2732 -1.1168,-0.5532 -1.548,-0.8324 -0.4248,-0.2856 -0.7472,-0.5032 -0.9592,-0.644 l -0.5168,0 0,5.7816 c 0.7472,0.3584 1.9196,0.7224 3.5048,1.0988 1.5908,0.3708 3.1204,0.5588 4.5896,0.5588 3.1456,0 5.5264,-0.6984 7.148,-2.1008 1.6212,-1.3968 2.4288,-3.364 2.4288,-5.9028 0,-1.566 -0.3708,-3.1024 -1.1056,-4.6024 -0.7348,-1.5 -1.9548,-3.1092 -3.6612,-4.828 -1.0692,-1.0568 -2.1068,-1.998 -3.1148,-2.8176 -1.008,-0.8256 -1.7372,-1.4084 -2.186,-1.754 l 11.2216,0 0,-4.998 z"
       style="fill:none;stroke:#4f4c4d;stroke-width:0.86400002;stroke-linecap:butt;stroke-linejoin:miter;stroke-miterlimit:22.92558479;stroke-dasharray:none;stroke-opacity:1"
       id="path3444"
       inkscape:connector-curvature="0" /><path
       d="m 412.10055,701.1237 c 0,-1.2936 -0.2424,-2.472 -0.722,-3.5412 -0.4796,-1.068 -1.178,-1.9728 -2.108,-2.72 -0.9344,-0.7472 -2.034,-1.3176 -3.2972,-1.7188 -1.2632,-0.3948 -2.8052,-0.5944 -4.6148,-0.5944 -2.0648,0 -3.8368,0.1704 -5.3132,0.516 -1.4752,0.346 -2.6784,0.7292 -3.6012,1.1532 l 0,5.7508 0.6384,0 c 0.9772,-0.6188 2.1124,-1.1472 3.4244,-1.6032 1.3116,-0.4488 2.508,-0.6736 3.5828,-0.6736 0.644,0 1.3356,0.0544 2.0884,0.1704 0.7532,0.1088 1.3848,0.358 1.8948,0.7344 0.4072,0.2972 0.7292,0.6612 0.9716,1.0932 0.2428,0.4364 0.364,1.05 0.364,1.846 0,0.7768 -0.17,1.3776 -0.5156,1.8028 -0.346,0.4196 -0.802,0.7232 -1.3664,0.9172 -0.5704,0.2008 -1.2508,0.3096 -2.0468,0.3344 -0.7948,0.024 -1.4932,0.036 -2.1008,0.036 l -1.1352,0 0,4.6636 1.05,0 c 0.8084,0 1.5488,0.036 2.2224,0.1088 0.6748,0.0668 1.2516,0.2132 1.7244,0.4252 0.474,0.2244 0.8448,0.5408 1.1112,0.9412 0.2676,0.4012 0.4016,0.948 0.4016,1.6396 0,0.5284 -0.128,0.966 -0.3764,1.306 -0.2496,0.3336 -0.5524,0.6012 -0.9232,0.7892 -0.4252,0.212 -0.9228,0.3584 -1.4944,0.4252 -0.57,0.0728 -1.0556,0.1088 -1.4568,0.1088 -0.6496,0 -1.3176,-0.0792 -1.9912,-0.23 -0.6744,-0.152 -1.3368,-0.3528 -1.974,-0.5896 -0.4976,-0.1884 -1.0204,-0.4308 -1.5668,-0.7348 -0.5468,-0.304 -0.9468,-0.534 -1.2076,-0.686 l -0.5536,0 0,5.6772 c 0.9108,0.3888 2.1444,0.7652 3.692,1.1292 1.5488,0.3584 3.1272,0.5412 4.7428,0.5412 1.5728,0 2.9392,-0.134 4.0992,-0.4072 1.1528,-0.2732 2.1428,-0.6736 2.9624,-1.1964 0.8992,-0.552 1.5728,-1.2628 2.0288,-2.1248 0.4488,-0.856 0.6744,-1.8276 0.6744,-2.9096 0,-1.5056 -0.4376,-2.8232 -1.306,-3.958 -0.8744,-1.1296 -2.0216,-1.864 -3.4424,-2.1988 l 0,-0.2492 c 0.6248,-0.0908 1.238,-0.2552 1.8392,-0.4796 0.5952,-0.2248 1.1848,-0.5884 1.7492,-1.0988 0.5344,-0.4616 0.9776,-1.0624 1.33,-1.7916 0.346,-0.7292 0.5216,-1.5964 0.5216,-2.6044"
       style="fill:#4f4c4d;fill-opacity:1;fill-rule:nonzero;stroke:none"
       id="path3446"
       inkscape:connector-curvature="0" /><path
       d="m 412.10055,701.1237 c 0,-1.2936 -0.2424,-2.472 -0.722,-3.5412 -0.4796,-1.068 -1.178,-1.9728 -2.108,-2.72 -0.9344,-0.7472 -2.034,-1.3176 -3.2972,-1.7188 -1.2632,-0.3948 -2.8052,-0.5944 -4.6148,-0.5944 -2.0648,0 -3.8368,0.1704 -5.3132,0.516 -1.4752,0.346 -2.6784,0.7292 -3.6012,1.1532 l 0,5.7508 0.6384,0 c 0.9772,-0.6188 2.1124,-1.1472 3.4244,-1.6032 1.3116,-0.4488 2.508,-0.6736 3.5828,-0.6736 0.644,0 1.3356,0.0544 2.0884,0.1704 0.7532,0.1088 1.3848,0.358 1.8948,0.7344 0.4072,0.2972 0.7292,0.6612 0.9716,1.0932 0.2428,0.4364 0.364,1.05 0.364,1.846 0,0.7768 -0.17,1.3776 -0.5156,1.8028 -0.346,0.4196 -0.802,0.7232 -1.3664,0.9172 -0.5704,0.2008 -1.2508,0.3096 -2.0468,0.3344 -0.7948,0.024 -1.4932,0.036 -2.1008,0.036 l -1.1352,0 0,4.6636 1.05,0 c 0.8084,0 1.5488,0.036 2.2224,0.1088 0.6748,0.0668 1.2516,0.2132 1.7244,0.4252 0.474,0.2244 0.8448,0.5408 1.1112,0.9412 0.2676,0.4012 0.4016,0.948 0.4016,1.6396 0,0.5284 -0.128,0.966 -0.3764,1.306 -0.2496,0.3336 -0.5524,0.6012 -0.9232,0.7892 -0.4252,0.212 -0.9228,0.3584 -1.4944,0.4252 -0.57,0.0728 -1.0556,0.1088 -1.4568,0.1088 -0.6496,0 -1.3176,-0.0792 -1.9912,-0.23 -0.6744,-0.152 -1.3368,-0.3528 -1.974,-0.5896 -0.4976,-0.1884 -1.0204,-0.4308 -1.5668,-0.7348 -0.5468,-0.304 -0.9468,-0.534 -1.2076,-0.686 l -0.5536,0 0,5.6772 c 0.9108,0.3888 2.1444,0.7652 3.692,1.1292 1.5488,0.3584 3.1272,0.5412 4.7428,0.5412 1.5728,0 2.9392,-0.134 4.0992,-0.4072 1.1528,-0.2732 2.1428,-0.6736 2.9624,-1.1964 0.8992,-0.552 1.5728,-1.2628 2.0288,-2.1248 0.4488,-0.856 0.6744,-1.8276 0.6744,-2.9096 0,-1.5056 -0.4376,-2.8232 -1.306,-3.958 -0.8744,-1.1296 -2.0216,-1.864 -3.4424,-2.1988 l 0,-0.2492 c 0.6248,-0.0908 1.238,-0.2552 1.8392,-0.4796 0.5952,-0.2248 1.1848,-0.5884 1.7492,-1.0988 0.5344,-0.4616 0.9776,-1.0624 1.33,-1.7916 0.346,-0.7292 0.5216,-1.5964 0.5216,-2.6044 z"
       style="fill:none;stroke:#4f4c4d;stroke-width:0.86400002;stroke-linecap:butt;stroke-linejoin:miter;stroke-miterlimit:22.92558479;stroke-dasharray:none;stroke-opacity:1"
       id="path3448"
       inkscape:connector-curvature="0" /><path
       d="m 206.30655,624.9705 -3.576,0 0,-6.242 -6.4248,0 0,6.242 -11.6468,0 0,4.9436 11.434,15.3752 6.6376,0 0,-15.552 3.576,0 0,-4.7668 z m -10.0008,4.7668 0,9.03 -6.7044,-9.03 6.7044,0 z"
       style="fill:#4f4c4d;fill-opacity:1;fill-rule:nonzero;stroke:none"
       id="path3450"
       inkscape:connector-curvature="0" /><path
       d="m 206.30655,624.9705 -3.576,0 0,-6.242 -6.4248,0 0,6.242 -11.6468,0 0,4.9436 11.434,15.3752 6.6376,0 0,-15.552 3.576,0 0,-4.7668 z m -10.0008,4.7668 0,9.03 -6.7044,-9.03 6.7044,0 z"
       style="fill:none;stroke:#4f4c4d;stroke-width:0.86400002;stroke-linecap:butt;stroke-linejoin:miter;stroke-miterlimit:22.92558479;stroke-dasharray:none;stroke-opacity:1"
       id="path3452"
       inkscape:connector-curvature="0" /><path
       d="m 308.99095,628.0033 c 0,-1.3728 -0.2368,-2.6476 -0.704,-3.82 -0.4672,-1.178 -1.1724,-2.1916 -2.1068,-3.042 -0.9228,-0.8436 -2.0228,-1.5 -3.2972,-1.9616 -1.2756,-0.4616 -2.8424,-0.6916 -4.7068,-0.6916 -1.9672,0.012 -3.6612,0.1816 -5.076,0.5104 -1.4208,0.3208 -2.5932,0.686 -3.5164,1.0928 l 0,5.7804 0.608,0 c 0.3276,-0.188 0.704,-0.4012 1.1168,-0.6372 0.4128,-0.2368 0.9592,-0.4864 1.6396,-0.7472 0.626,-0.2492 1.2632,-0.4556 1.9072,-0.6132 0.6496,-0.1644 1.366,-0.2428 2.1612,-0.2428 0.6856,0 1.4272,0.0852 2.222,0.2552 0.796,0.1756 1.44,0.4852 1.9256,0.9344 0.3524,0.358 0.6316,0.754 0.832,1.1904 0.2008,0.4432 0.304,1.026 0.304,1.7608 0,0.6192 -0.128,1.1476 -0.3832,1.5976 -0.2552,0.4432 -0.5884,0.8016 -1.0024,1.0748 -0.6064,0.4004 -1.3356,0.6612 -2.1916,0.7712 -0.8504,0.1156 -1.5852,0.17 -2.2044,0.17 -0.9716,0 -1.9184,-0.0792 -2.8356,-0.2312 -0.9232,-0.152 -1.7192,-0.322 -2.3924,-0.498 l -0.5704,0 0,14.872 17.5428,0 0,-4.998 -11.2648,0 0,-4.4144 c 0.3584,0.024 0.778,0.0488 1.2756,0.0668 0.492,0.02 0.8744,0.024 1.1476,0.024 1.2688,0 2.4412,-0.1268 3.5216,-0.382 1.0748,-0.2552 2.0344,-0.65 2.8608,-1.1848 1.0136,-0.65 1.7916,-1.524 2.3492,-2.6228 0.5592,-1.1 0.838,-2.4356 0.838,-4.014"
       style="fill:#4f4c4d;fill-opacity:1;fill-rule:nonzero;stroke:none"
       id="path3454"
       inkscape:connector-curvature="0" /><path
       d="m 308.99095,628.0033 c 0,-1.3728 -0.2368,-2.6476 -0.704,-3.82 -0.4672,-1.178 -1.1724,-2.1916 -2.1068,-3.042 -0.9228,-0.8436 -2.0228,-1.5 -3.2972,-1.9616 -1.2756,-0.4616 -2.8424,-0.6916 -4.7068,-0.6916 -1.9672,0.012 -3.6612,0.1816 -5.076,0.5104 -1.4208,0.3208 -2.5932,0.686 -3.5164,1.0928 l 0,5.7804 0.608,0 c 0.3276,-0.188 0.704,-0.4012 1.1168,-0.6372 0.4128,-0.2368 0.9592,-0.4864 1.6396,-0.7472 0.626,-0.2492 1.2632,-0.4556 1.9072,-0.6132 0.6496,-0.1644 1.366,-0.2428 2.1612,-0.2428 0.6856,0 1.4272,0.0852 2.222,0.2552 0.796,0.1756 1.44,0.4852 1.9256,0.9344 0.3524,0.358 0.6316,0.754 0.832,1.1904 0.2008,0.4432 0.304,1.026 0.304,1.7608 0,0.6192 -0.128,1.1476 -0.3832,1.5976 -0.2552,0.4432 -0.5884,0.8016 -1.0024,1.0748 -0.6064,0.4004 -1.3356,0.6612 -2.1916,0.7712 -0.8504,0.1156 -1.5852,0.17 -2.2044,0.17 -0.9716,0 -1.9184,-0.0792 -2.8356,-0.2312 -0.9232,-0.152 -1.7192,-0.322 -2.3924,-0.498 l -0.5704,0 0,14.872 17.5428,0 0,-4.998 -11.2648,0 0,-4.4144 c 0.3584,0.024 0.778,0.0488 1.2756,0.0668 0.492,0.02 0.8744,0.024 1.1476,0.024 1.2688,0 2.4412,-0.1268 3.5216,-0.382 1.0748,-0.2552 2.0344,-0.65 2.8608,-1.1848 1.0136,-0.65 1.7916,-1.524 2.3492,-2.6228 0.5592,-1.1 0.838,-2.4356 0.838,-4.014 z"
       style="fill:none;stroke:#4f4c4d;stroke-width:0.86400002;stroke-linecap:butt;stroke-linejoin:miter;stroke-miterlimit:22.92558479;stroke-dasharray:none;stroke-opacity:1"
       id="path3456"
       inkscape:connector-curvature="0" /><path
       d="m 412.34895,627.8097 c 0,-2.7872 -0.8868,-5.0764 -2.6532,-6.8748 -1.7676,-1.7972 -4.1896,-2.6952 -7.2748,-2.6952 -1.542,0 -2.9152,0.2244 -4.1228,0.668 -1.2144,0.4432 -2.2416,1.0988 -3.0796,1.9672 -1.008,1.0204 -1.7788,2.3312 -2.3128,3.9468 -0.534,1.616 -0.8016,3.54 -0.8016,5.7804 0,2.3268 0.2492,4.3904 0.7472,6.1944 0.4976,1.7972 1.3116,3.3948 2.4344,4.7848 1.0816,1.312 2.4956,2.3436 4.2384,3.0852 1.7424,0.7404 3.8072,1.1112 6.1884,1.1112 0.8684,0 1.736,-0.0544 2.6112,-0.17 0.8676,-0.11 1.4628,-0.2064 1.7848,-0.2732 l 0,-5.2156 -0.4796,0 c -0.3096,0.1508 -0.82,0.3276 -1.5308,0.5272 -0.7096,0.1948 -1.524,0.2924 -2.4344,0.2924 -2.0772,0 -3.6804,-0.5464 -4.8028,-1.634 -1.1296,-1.0928 -1.8224,-2.66 -2.0832,-4.6996 0.862,0.5576 1.7428,1.0012 2.6408,1.3356 0.8936,0.3332 1.9072,0.4976 3.0308,0.4976 0.9536,0 1.8392,-0.1268 2.6784,-0.382 0.8376,-0.2552 1.578,-0.626 2.2336,-1.1112 0.9116,-0.6984 1.6396,-1.6212 2.1804,-2.7576 0.5408,-1.1416 0.8072,-2.5988 0.8072,-4.3776 z m -7.7236,-4.0016 c 0.3456,0.4252 0.6076,0.8924 0.796,1.396 0.1812,0.5044 0.2732,1.2628 0.2732,2.2836 0,0.856 -0.11,1.56 -0.322,2.1192 -0.2132,0.5588 -0.516,1.002 -0.9048,1.33 -0.3948,0.3344 -0.838,0.5644 -1.336,0.686 -0.4988,0.128 -1.026,0.188 -1.5792,0.188 -0.4672,0 -0.9412,-0.06 -1.4332,-0.1756 -0.4924,-0.1216 -0.9536,-0.2676 -1.3776,-0.4492 0,-0.1156 -0.008,-0.3104 -0.02,-0.584 -0.012,-0.2732 -0.02,-0.6188 -0.02,-1.0316 0,-1.5184 0.134,-2.7384 0.4016,-3.668 0.2676,-0.9232 0.6008,-1.6216 1.002,-2.0944 0.3096,-0.3832 0.6612,-0.6564 1.0624,-0.8196 0.3948,-0.1644 0.8132,-0.2496 1.2508,-0.2496 0.3584,0 0.7404,0.0908 1.1544,0.2676 0.4184,0.1756 0.764,0.4432 1.05,0.8016"
       style="fill:#4f4c4d;fill-opacity:1;fill-rule:nonzero;stroke:none"
       id="path3458"
       inkscape:connector-curvature="0" /><path
       d="m 412.34895,627.8097 c 0,-2.7872 -0.8868,-5.0764 -2.6532,-6.8748 -1.7676,-1.7972 -4.1896,-2.6952 -7.2748,-2.6952 -1.542,0 -2.9152,0.2244 -4.1228,0.668 -1.2144,0.4432 -2.2416,1.0988 -3.0796,1.9672 -1.008,1.0204 -1.7788,2.3312 -2.3128,3.9468 -0.534,1.616 -0.8016,3.54 -0.8016,5.7804 0,2.3268 0.2492,4.3904 0.7472,6.1944 0.4976,1.7972 1.3116,3.3948 2.4344,4.7848 1.0816,1.312 2.4956,2.3436 4.2384,3.0852 1.7424,0.7404 3.8072,1.1112 6.1884,1.1112 0.8684,0 1.736,-0.0544 2.6112,-0.17 0.8676,-0.11 1.4628,-0.2064 1.7848,-0.2732 l 0,-5.2156 -0.4796,0 c -0.3096,0.1508 -0.82,0.3276 -1.5308,0.5272 -0.7096,0.1948 -1.524,0.2924 -2.4344,0.2924 -2.0772,0 -3.6804,-0.5464 -4.8028,-1.634 -1.1296,-1.0928 -1.8224,-2.66 -2.0832,-4.6996 0.862,0.5576 1.7428,1.0012 2.6408,1.3356 0.8936,0.3332 1.9072,0.4976 3.0308,0.4976 0.9536,0 1.8392,-0.1268 2.6784,-0.382 0.8376,-0.2552 1.578,-0.626 2.2336,-1.1112 0.9116,-0.6984 1.6396,-1.6212 2.1804,-2.7576 0.5408,-1.1416 0.8072,-2.5988 0.8072,-4.3776 z m -7.7236,-4.0016 c 0.3456,0.4252 0.6076,0.8924 0.796,1.396 0.1812,0.5044 0.2732,1.2628 0.2732,2.2836 0,0.856 -0.11,1.56 -0.322,2.1192 -0.2132,0.5588 -0.516,1.002 -0.9048,1.33 -0.3948,0.3344 -0.838,0.5644 -1.336,0.686 -0.4988,0.128 -1.026,0.188 -1.5792,0.188 -0.4672,0 -0.9412,-0.06 -1.4332,-0.1756 -0.4924,-0.1216 -0.9536,-0.2676 -1.3776,-0.4492 0,-0.1156 -0.008,-0.3104 -0.02,-0.584 -0.012,-0.2732 -0.02,-0.6188 -0.02,-1.0316 0,-1.5184 0.134,-2.7384 0.4016,-3.668 0.2676,-0.9232 0.6008,-1.6216 1.002,-2.0944 0.3096,-0.3832 0.6612,-0.6564 1.0624,-0.8196 0.3948,-0.1644 0.8132,-0.2496 1.2508,-0.2496 0.3584,0 0.7404,0.0908 1.1544,0.2676 0.4184,0.1756 0.764,0.4432 1.05,0.8016 z"
       style="fill:none;stroke:#4f4c4d;stroke-width:0.86400002;stroke-linecap:butt;stroke-linejoin:miter;stroke-miterlimit:22.92558479;stroke-dasharray:none;stroke-opacity:1"
       id="path3460"
       inkscape:connector-curvature="0" /><path
       d="m 205.85975,565.6505 -11.282,-21.2228 -7.3904,0 11.8228,21.4904 -12.6244,0 0,4.998 19.474,0 0,-5.2656 z"
       style="fill:#4f4c4d;fill-opacity:1;fill-rule:nonzero;stroke:none"
       id="path3462"
       inkscape:connector-curvature="0" /><path
       d="m 205.85975,565.6505 -11.282,-21.2228 -7.3904,0 11.8228,21.4904 -12.6244,0 0,4.998 19.474,0 0,-5.2656 z"
       style="fill:none;stroke:#4f4c4d;stroke-width:0.86400002;stroke-linecap:butt;stroke-linejoin:miter;stroke-miterlimit:22.92558479;stroke-dasharray:none;stroke-opacity:1"
       id="path3464"
       inkscape:connector-curvature="0" /><path
       d="m 309.25535,551.8117 c 0,-1.142 -0.2372,-2.1976 -0.7044,-3.176 -0.4668,-0.9832 -1.154,-1.828 -2.052,-2.5376 -0.8992,-0.7108 -1.998,-1.27 -3.2972,-1.6704 -1.2996,-0.4068 -2.7872,-0.6076 -4.4572,-0.6076 -1.7792,0 -3.3336,0.2076 -4.6764,0.6136 -1.3412,0.4068 -2.4344,0.966 -3.2916,1.6644 -0.8432,0.6984 -1.4624,1.524 -1.864,2.4708 -0.4068,0.9536 -0.6064,1.9556 -0.6064,3.0056 0,1.5252 0.4184,2.7884 1.2504,3.7964 0.838,1.008 2.0524,1.8456 3.6376,2.5248 l 0,0.1044 c -1.5488,0.7588 -2.6352,1.6816 -3.2552,2.7564 -0.6136,1.0808 -0.9232,2.2836 -0.9232,3.6124 0,0.972 0.2132,1.8892 0.6384,2.7396 0.4308,0.856 1.068,1.6212 1.9244,2.2948 0.8084,0.644 1.8276,1.1544 3.0668,1.542 1.2384,0.3832 2.6296,0.5772 4.1716,0.5772 1.634,0 3.0604,-0.1756 4.2748,-0.5216 1.2208,-0.3524 2.2164,-0.814 3,-1.3844 0.8072,-0.5772 1.4208,-1.2812 1.8516,-2.1076 0.4252,-0.82 0.6384,-1.7124 0.6384,-2.6784 0,-1.2564 -0.3652,-2.3924 -1.0932,-3.406 -0.7288,-1.0136 -1.8456,-1.864 -3.3516,-2.55 l 0,-0.11 c 1.754,-0.71 3.042,-1.6452 3.8732,-2.7996 0.8324,-1.1588 1.2452,-2.5444 1.2452,-4.1532 z m -7.1164,12.242 c 0,0.8992 -0.298,1.6216 -0.8864,2.1624 -0.5952,0.5396 -1.4028,0.8072 -2.4176,0.8072 -0.9716,0 -1.7608,-0.2424 -2.356,-0.7288 -0.6008,-0.4856 -0.898,-1.0864 -0.898,-1.7972 0,-0.7112 0.1812,-1.2872 0.5396,-1.7192 0.3652,-0.4308 0.9232,-0.8308 1.6828,-1.2016 0.3276,-0.1644 0.722,-0.3404 1.178,-0.516 0.4616,-0.1768 1.068,-0.4072 1.8208,-0.6928 0.4684,0.6076 0.802,1.1904 1.0148,1.7552 0.2124,0.5588 0.322,1.202 0.322,1.9308 z m 0.5524,-12.5268 c 0,0.862 -0.1824,1.5296 -0.5524,1.9912 -0.3648,0.4616 -1.154,0.984 -2.3628,1.5668 -0.346,0.1644 -0.838,0.3708 -1.4876,0.6192 -0.6428,0.2496 -1.2144,0.4796 -1.712,0.6984 -0.4616,-0.4672 -0.8744,-1.0384 -1.2396,-1.7188 -0.358,-0.686 -0.5396,-1.432 -0.5396,-2.252 0,-1.2336 0.3888,-2.2168 1.1712,-2.9512 0.7836,-0.7348 1.8164,-1.1056 3.098,-1.1056 0.34,0 0.7344,0.0544 1.178,0.17 0.4488,0.1088 0.8436,0.2856 1.1836,0.5228 0.382,0.2732 0.686,0.594 0.9172,0.9648 0.2304,0.364 0.346,0.8628 0.346,1.4944"
       style="fill:#4f4c4d;fill-opacity:1;fill-rule:nonzero;stroke:none"
       id="path3466"
       inkscape:connector-curvature="0" /><path
       d="m 309.25535,551.8117 c 0,-1.142 -0.2372,-2.1976 -0.7044,-3.176 -0.4668,-0.9832 -1.154,-1.828 -2.052,-2.5376 -0.8992,-0.7108 -1.998,-1.27 -3.2972,-1.6704 -1.2996,-0.4068 -2.7872,-0.6076 -4.4572,-0.6076 -1.7792,0 -3.3336,0.2076 -4.6764,0.6136 -1.3412,0.4068 -2.4344,0.966 -3.2916,1.6644 -0.8432,0.6984 -1.4624,1.524 -1.864,2.4708 -0.4068,0.9536 -0.6064,1.9556 -0.6064,3.0056 0,1.5252 0.4184,2.7884 1.2504,3.7964 0.838,1.008 2.0524,1.8456 3.6376,2.5248 l 0,0.1044 c -1.5488,0.7588 -2.6352,1.6816 -3.2552,2.7564 -0.6136,1.0808 -0.9232,2.2836 -0.9232,3.6124 0,0.972 0.2132,1.8892 0.6384,2.7396 0.4308,0.856 1.068,1.6212 1.9244,2.2948 0.8084,0.644 1.8276,1.1544 3.0668,1.542 1.2384,0.3832 2.6296,0.5772 4.1716,0.5772 1.634,0 3.0604,-0.1756 4.2748,-0.5216 1.2208,-0.3524 2.2164,-0.814 3,-1.3844 0.8072,-0.5772 1.4208,-1.2812 1.8516,-2.1076 0.4252,-0.82 0.6384,-1.7124 0.6384,-2.6784 0,-1.2564 -0.3652,-2.3924 -1.0932,-3.406 -0.7288,-1.0136 -1.8456,-1.864 -3.3516,-2.55 l 0,-0.11 c 1.754,-0.71 3.042,-1.6452 3.8732,-2.7996 0.8324,-1.1588 1.2452,-2.5444 1.2452,-4.1532 z m -7.1164,12.242 c 0,0.8992 -0.298,1.6216 -0.8864,2.1624 -0.5952,0.5396 -1.4028,0.8072 -2.4176,0.8072 -0.9716,0 -1.7608,-0.2424 -2.356,-0.7288 -0.6008,-0.4856 -0.898,-1.0864 -0.898,-1.7972 0,-0.7112 0.1812,-1.2872 0.5396,-1.7192 0.3652,-0.4308 0.9232,-0.8308 1.6828,-1.2016 0.3276,-0.1644 0.722,-0.3404 1.178,-0.516 0.4616,-0.1768 1.068,-0.4072 1.8208,-0.6928 0.4684,0.6076 0.802,1.1904 1.0148,1.7552 0.2124,0.5588 0.322,1.202 0.322,1.9308 z m 0.5524,-12.5268 c 0,0.862 -0.1824,1.5296 -0.5524,1.9912 -0.3648,0.4616 -1.154,0.984 -2.3628,1.5668 -0.346,0.1644 -0.838,0.3708 -1.4876,0.6192 -0.6428,0.2496 -1.2144,0.4796 -1.712,0.6984 -0.4616,-0.4672 -0.8744,-1.0384 -1.2396,-1.7188 -0.358,-0.686 -0.5396,-1.432 -0.5396,-2.252 0,-1.2336 0.3888,-2.2168 1.1712,-2.9512 0.7836,-0.7348 1.8164,-1.1056 3.098,-1.1056 0.34,0 0.7344,0.0544 1.178,0.17 0.4488,0.1088 0.8436,0.2856 1.1836,0.5228 0.382,0.2732 0.686,0.594 0.9172,0.9648 0.2304,0.364 0.346,0.8628 0.346,1.4944 z"
       style="fill:none;stroke:#4f4c4d;stroke-width:0.86400002;stroke-linecap:butt;stroke-linejoin:miter;stroke-miterlimit:22.92558479;stroke-dasharray:none;stroke-opacity:1"
       id="path3468"
       inkscape:connector-curvature="0" /><path
       d="m 412.08255,559.1501 c 0,-2.252 -0.2608,-4.3168 -0.7836,-6.1932 -0.5216,-1.8708 -1.3356,-3.48 -2.4344,-4.8212 -1.1416,-1.3608 -2.5568,-2.412 -4.2452,-3.1396 -1.694,-0.7292 -3.7644,-1.0932 -6.218,-1.0932 -0.832,0 -1.7008,0.0544 -2.5988,0.1576 -0.9048,0.1088 -1.5,0.2064 -1.7972,0.2856 l 0,5.216 0.516,0 c 0.3332,-0.1632 0.8016,-0.346 1.4152,-0.534 0.6132,-0.1884 1.4568,-0.286 2.5376,-0.286 0.8628,0 1.7008,0.1156 2.508,0.346 0.8072,0.2312 1.5,0.5952 2.0828,1.0928 0.6008,0.5228 1.1056,1.1784 1.5128,1.956 0.4,0.7836 0.6732,1.7608 0.8128,2.9392 -0.9468,-0.5956 -1.8276,-1.0512 -2.6408,-1.3608 -0.8084,-0.3152 -1.822,-0.4728 -3.0308,-0.4728 -0.916,0 -1.7916,0.1212 -2.6224,0.364 -0.838,0.2428 -1.5976,0.6192 -2.2896,1.1292 -0.9116,0.7112 -1.6336,1.6272 -2.1676,2.7508 -0.5352,1.1168 -0.802,2.5684 -0.802,4.3484 0,1.3776 0.2372,2.6476 0.7044,3.8132 0.4672,1.1712 1.1348,2.186 1.9976,3.0544 0.8564,0.8496 1.9072,1.524 3.1512,2.0092 1.2448,0.4864 2.6292,0.7292 4.16,0.7292 1.542,0 2.9152,-0.2188 4.1116,-0.6496 1.196,-0.4308 2.2224,-1.0932 3.0784,-1.9856 0.9956,-1.008 1.7552,-2.3016 2.2708,-3.8924 0.516,-1.5908 0.7712,-3.5104 0.7712,-5.7632 z m -6.582,0.9964 c 0,1.4332 -0.1212,2.6172 -0.3652,3.5456 -0.2424,0.9356 -0.5828,1.6576 -1.0192,2.1804 -0.3108,0.382 -0.6564,0.6556 -1.0456,0.82 -0.382,0.1644 -0.8016,0.2492 -1.2504,0.2492 -0.3948,0 -0.7768,-0.0792 -1.1476,-0.2436 -0.3764,-0.1576 -0.7348,-0.4308 -1.0748,-0.8256 -0.3096,-0.34 -0.5704,-0.8436 -0.7836,-1.5124 -0.212,-0.6612 -0.322,-1.3904 -0.322,-2.186 0,-0.8564 0.11,-1.5548 0.3288,-2.1068 0.2176,-0.5524 0.5216,-0.9956 0.898,-1.3232 0.3832,-0.322 0.814,-0.5468 1.2996,-0.6804 0.4864,-0.128 1.026,-0.1952 1.6156,-0.1952 0.4976,0 1.0136,0.0672 1.542,0.2076 0.5284,0.1328 0.948,0.2732 1.2688,0.4184 0,0.128 0.012,0.3164 0.032,0.5592 0.02,0.2424 0.024,0.6064 0.024,1.0928"
       style="fill:#4f4c4d;fill-opacity:1;fill-rule:nonzero;stroke:none"
       id="path3470"
       inkscape:connector-curvature="0" /><path
       d="m 412.08255,559.1501 c 0,-2.252 -0.2608,-4.3168 -0.7836,-6.1932 -0.5216,-1.8708 -1.3356,-3.48 -2.4344,-4.8212 -1.1416,-1.3608 -2.5568,-2.412 -4.2452,-3.1396 -1.694,-0.7292 -3.7644,-1.0932 -6.218,-1.0932 -0.832,0 -1.7008,0.0544 -2.5988,0.1576 -0.9048,0.1088 -1.5,0.2064 -1.7972,0.2856 l 0,5.216 0.516,0 c 0.3332,-0.1632 0.8016,-0.346 1.4152,-0.534 0.6132,-0.1884 1.4568,-0.286 2.5376,-0.286 0.8628,0 1.7008,0.1156 2.508,0.346 0.8072,0.2312 1.5,0.5952 2.0828,1.0928 0.6008,0.5228 1.1056,1.1784 1.5128,1.956 0.4,0.7836 0.6732,1.7608 0.8128,2.9392 -0.9468,-0.5956 -1.8276,-1.0512 -2.6408,-1.3608 -0.8084,-0.3152 -1.822,-0.4728 -3.0308,-0.4728 -0.916,0 -1.7916,0.1212 -2.6224,0.364 -0.838,0.2428 -1.5976,0.6192 -2.2896,1.1292 -0.9116,0.7112 -1.6336,1.6272 -2.1676,2.7508 -0.5352,1.1168 -0.802,2.5684 -0.802,4.3484 0,1.3776 0.2372,2.6476 0.7044,3.8132 0.4672,1.1712 1.1348,2.186 1.9976,3.0544 0.8564,0.8496 1.9072,1.524 3.1512,2.0092 1.2448,0.4864 2.6292,0.7292 4.16,0.7292 1.542,0 2.9152,-0.2188 4.1116,-0.6496 1.196,-0.4308 2.2224,-1.0932 3.0784,-1.9856 0.9956,-1.008 1.7552,-2.3016 2.2708,-3.8924 0.516,-1.5908 0.7712,-3.5104 0.7712,-5.7632 z m -6.582,0.9964 c 0,1.4332 -0.1212,2.6172 -0.3652,3.5456 -0.2424,0.9356 -0.5828,1.6576 -1.0192,2.1804 -0.3108,0.382 -0.6564,0.6556 -1.0456,0.82 -0.382,0.1644 -0.8016,0.2492 -1.2504,0.2492 -0.3948,0 -0.7768,-0.0792 -1.1476,-0.2436 -0.3764,-0.1576 -0.7348,-0.4308 -1.0748,-0.8256 -0.3096,-0.34 -0.5704,-0.8436 -0.7836,-1.5124 -0.212,-0.6612 -0.322,-1.3904 -0.322,-2.186 0,-0.8564 0.11,-1.5548 0.3288,-2.1068 0.2176,-0.5524 0.5216,-0.9956 0.898,-1.3232 0.3832,-0.322 0.814,-0.5468 1.2996,-0.6804 0.4864,-0.128 1.026,-0.1952 1.6156,-0.1952 0.4976,0 1.0136,0.0672 1.542,0.2076 0.5284,0.1328 0.948,0.2732 1.2688,0.4184 0,0.128 0.012,0.3164 0.032,0.5592 0.02,0.2424 0.024,0.6064 0.024,1.0928 z"
       style="fill:none;stroke:#4f4c4d;stroke-width:0.86400002;stroke-linecap:butt;stroke-linejoin:miter;stroke-miterlimit:22.92558479;stroke-dasharray:none;stroke-opacity:1"
       id="path3472"
       inkscape:connector-curvature="0" /><path
       d="m 295.60447,508.93895 c -16.6348,0 -30.1232,-13.4884 -30.1232,-30.1232 0,-16.6336 13.4884,-30.1232 30.1232,-30.1232 16.634,0 30.1232,13.4896 30.1232,30.1232 0,16.6348 -13.4892,30.1232 -30.1232,30.1232 z"
       style="fill:#4f4c4d;fill-opacity:1;fill-rule:evenodd;stroke:#4f4c4d;stroke-width:0.86400002;stroke-linecap:butt;stroke-linejoin:miter;stroke-miterlimit:22.92558479;stroke-dasharray:none;stroke-opacity:1"
       id="path3418-8"
       inkscape:connector-curvature="0" /><path
       d="m 297.93567,511.78935 c -16.6348,0 -30.1232,-13.4884 -30.1232,-30.1232 0,-16.6336 13.4884,-30.1232 30.1232,-30.1232 16.634,0 30.1232,13.4896 30.1232,30.1232 0,16.6348 -13.4892,30.1232 -30.1232,30.1232 z"
       style="fill:#ffffff;fill-opacity:1;fill-rule:evenodd;stroke:#4f4c4d;stroke-width:0.86400002;stroke-linecap:butt;stroke-linejoin:miter;stroke-miterlimit:22.92558479;stroke-dasharray:none;stroke-opacity:1"
       id="path3436-0"
       inkscape:connector-curvature="0" /><text
       xml:space="preserve"
       style="font-style:normal;font-variant:normal;font-weight:bold;font-stretch:normal;font-size:40px;line-height:125%;font-family:sans-serif;-inkscape-font-specification:'sans-serif Bold';letter-spacing:0px;word-spacing:0px;fill:#4f4c4d;fill-opacity:1;stroke:none;stroke-width:1px;stroke-linecap:butt;stroke-linejoin:miter;stroke-opacity:1"
       x="284.27448"
       y="-467.09848"
       id="text4354"
       sodipodi:linespacing="125%"
       transform="scale(1,-1)"><tspan
         sodipodi:role="line"
         id="tspan4356"
         x="284.27448"
         y="-467.09848">0</tspan></text>
</g></svg>